Coordinates
version=1
nRows=16
nColumns=22
inDegrees=yes

Units are S.I. units (second, meters, Newtons, ...)
If the header above contains a line with 'inDegrees', this indicates whether rotational values are in degrees (yes) or radians (no).

endheader
time	pelvis_tilt	pelvis_list	pelvis_rotation	pelvis_tx	pelvis_ty	pelvis_tz	hip_flexion_r	hip_adduction_r	hip_rotation_r	knee_angle_r	ankle_angle_r	subtalar_angle_r	hip_flexion_l	hip_adduction_l	hip_rotation_l	knee_angle_l	ankle_angle_l	subtalar_angle_l	lumbar_extension	lumbar_bending	lumbar_rotation
      4.17000000	      5.45220044	     -5.47701136	      9.71267037	      0.53297237	      1.07519418	     -0.34134774	      6.53308734	      8.49543542	    -11.46860981	    -12.97091189	      4.18143680	     -5.02752864	      4.18581650	     -6.61883194	      8.84219342	    -59.68612112	     -4.87269858	     13.84584847	     -5.29845672	      3.49965991	     -6.95132763
      4.18000000	      5.51417069	     -5.47394745	      9.55040083	      0.53905693	      1.07602249	     -0.34026220	      5.91408937	      8.67331349	    -11.25424173	    -12.59518289	      4.30723741	     -5.06960678	      4.94740319	     -6.55207326	      8.81114793	    -60.27724225	     -3.90918897	     12.92752896	     -5.39505018	      3.43149718	     -6.59619538
      4.19000000	      5.55837256	     -5.48553923	      9.36406301	      0.54502641	      1.07679143	     -0.33919873	      5.31097774	      8.85909410	    -10.99887442	    -12.20140085	      4.40400437	     -5.05546408	      5.70010510	     -6.50604640	      8.74822144	    -60.72371581	     -2.85052503	     12.20579084	     -5.46870571	      3.38160971	     -6.24264456
      4.20000000	      5.59648078	     -5.46371345	      9.17686337	      0.55078649	      1.07751564	     -0.33821784	      4.74369503	      8.99150640	    -10.75589514	    -11.85770695	      4.49935047	     -5.01674039	      6.42206201	     -6.40553852	      8.70443763	    -61.02005535	     -1.74618477	     11.40647587	     -5.55818595	      3.29887558	     -5.90184949
      4.21000000	      5.61843093	     -5.43872871	      8.97907996	      0.55643736	      1.07817525	     -0.33728462	      4.20043974	      9.10868429	    -10.50166479	    -11.52107820	      4.59271305	     -4.96746384	      7.12254490	     -6.30797143	      8.63739110	    -61.16372292	     -0.60580131	     10.70204795	     -5.62902689	      3.21588490	     -5.57928426
      4.22000000	      5.62915439	     -5.40878291	      8.77603667	      0.56192815	      1.07876480	     -0.33639921	      3.68971396	      9.20851213	    -10.23943367	    -11.21011772	      4.68595967	     -4.91803136	      7.79680558	     -6.20571994	      8.56376399	    -61.15917542	      0.55872254	     10.02123101	     -5.69693576	      3.13131608	     -5.27188765
      4.23000000	      5.62799863	     -5.38097429	      8.56813336	      0.56728921	      1.07928575	     -0.33554053	      3.21056642	      9.30111666	     -9.96856618	    -10.92314879	      4.78051516	     -4.87736998	      8.44231421	     -6.11425902	      8.47588988	    -61.00180111	      1.73021826	      9.35404084	     -5.75575587	      3.04721658	     -4.97200616
      4.24000000	      5.61414482	     -5.35812424	      8.35391621	      0.57251768	      1.07973528	     -0.33472079	      2.76800260	      9.38796730	     -9.69796581	    -10.66526332	      4.88576049	     -4.85604751	      9.05755664	     -6.03605323	      8.37420075	    -60.69350677	      2.90903041	      8.74663361	     -5.80420465	      2.97193346	     -4.67531436
      4.25000000	      5.58676213	     -5.32517931	      8.13959748	      0.57765340	      1.08013765	     -0.33392006	      2.35179275	      9.45723006	     -9.42143415	    -10.42269012	      4.98915424	     -4.85741913	      9.63490165	     -5.96895400	      8.23865801	    -60.22159220	      4.06677310	      8.11137890	     -5.83641935	      2.88275950	     -4.42355804
      4.26000000	      5.54827487	     -5.29740708	      7.92310439	      0.58266019	      1.08048368	     -0.33315453	      1.97324704	      9.52291868	     -9.13830818	    -10.21374215	      5.10301422	     -4.88230635	     10.17569935	     -5.91557452	      8.09648088	    -59.59969475	      5.20908727	      7.56290399	     -5.85978283	      2.79961948	     -4.16594327
      4.27000000	      5.50050883	     -5.26767860	      7.69976477	      0.58756485	      1.08079460	     -0.33241425	      1.62561443	      9.57898215	     -8.84948213	    -10.03398329	      5.22376895	     -4.92542402	     10.66871051	     -5.87500441	      7.93091281	    -58.82069070	      6.32128736	      7.08316529	     -5.87370480	      2.71435680	     -3.91775654
      4.28000000	      5.44402831	     -5.23465142	      7.46934254	      0.59237377	      1.08107785	     -0.33170966	      1.30749190	      9.62287107	     -8.55439327	     -9.88387504	      5.35382543	     -4.97834387	     11.10797708	     -5.84099114	      7.75008812	    -57.88564264	      7.39464905	      6.69161750	     -5.87795238	      2.62593721	     -3.66330349
      4.29000000	      5.38429739	     -5.18504055	      7.22975752	      0.59710016	      1.08135412	     -0.33103592	      1.00694976	      9.64184831	     -8.25697573	     -9.75607032	      5.48186846	     -5.04577161	     11.47930176	     -5.80232506	      7.54362487	    -56.79215973	      8.41393929	      6.34851185	     -5.87953471	      2.52069871	     -3.42920944
      4.30000000	      5.31510192	     -5.12777475	      6.97914488	      0.60172817	      1.08159988	     -0.33039291	      0.74663587	      9.64081834	     -7.98691933	     -9.67721217	      5.63336911	     -5.10929350	     11.79272999	     -5.76742281	      7.31027204	    -55.55372118	      9.38627872	      6.10500605	     -5.87280777	      2.41025516	     -3.21929219
      4.31000000	      5.24630695	     -5.04366012	      6.70938143	      0.60627750	      1.08185980	     -0.32978966	      0.48397436	      9.60627995	     -7.67913936	     -9.59494931	      5.76265525	     -5.19642152	     12.01753130	     -5.69760299	      7.07665705	    -54.16087448	     10.25870429	      5.87174994	     -5.86943198	      2.27224681	     -2.99094127
      4.32000000	      5.18391034	     -4.93878460	      6.42908137	      0.61074653	      1.08212559	     -0.32924037	      0.22492282	      9.54166621	     -7.37290409	     -9.52956933	      5.88917784	     -5.30473029	     12.15230656	     -5.60015960	      6.84705066	    -52.63018112	     11.03081622	      5.66165104	     -5.87502534	      2.11646588	     -2.76932158
